Coordinates
version=1
nRows=41
nColumns=38
inDegrees=no

Units are S.I. units (second, meters, Newtons, ...)
If the header above contains a line with 'inDegrees', this indicates whether rotational values are in degrees (yes) or radians (no).

endheader
time	pelvis_tilt	pelvis_list	pelvis_rotation	pelvis_tx	pelvis_ty	pelvis_tz	hip_flexion_r	hip_adduction_r	hip_rotation_r	knee_angle_r	ankle_angle_r	subtalar_angle_r	mtp_angle_r	hip_flexion_l	hip_adduction_l	hip_rotation_l	knee_angle_l	ankle_angle_l	subtalar_angle_l	mtp_angle_l	lumbar_extension	lumbar_bending	lumbar_rotation	arm_flex_r	arm_add_r	arm_rot_r	elbow_flex_r	pro_sup_r	wrist_flex_r	wrist_dev_r	arm_flex_l	arm_add_l	arm_rot_l	elbow_flex_l	pro_sup_l	wrist_flex_l	wrist_dev_l
1.45	0.65554	1.31707	-1.98262	0.467472	0.477472	0.920477	0.316653	-0.355078	-0.385783	0.873437	-0.0713399	0	0	-0.333419	0.183392	0.017457	0.257599	-0.104023	0	0	-0.228696	-0.0334871	0.072996	-0.217009	-0.706639	-0.0916989	1.61896	0.560327	0	0	0.757719	-0.605545	1.10406	1.11787	0.385437	0	0
1.46	0.666906	1.32243	-1.99929	0.467576	0.468403	0.919124	0.315768	-0.343977	-0.385827	0.797755	-0.0627181	0	0	-0.338767	0.183164	0.0135907	0.254368	-0.100056	0	0	-0.222132	-0.0340623	0.0799469	-0.219313	-0.70732	-0.0944983	1.61994	0.559396	0	0	0.757481	-0.602733	1.10277	1.11523	0.389034	0	0
1.47	0.677283	1.32748	-2.01541	0.467544	0.459332	0.917722	0.309718	-0.329862	-0.380711	0.712374	-0.0531936	0	0	-0.344301	0.182432	0.00803827	0.251651	-0.095437	0	0	-0.216638	-0.0348944	0.0865976	-0.220312	-0.708818	-0.0958129	1.62063	0.555986	0	0	0.757108	-0.601615	1.10113	1.11523	0.390821	0	0
1.48	0.637925	1.34541	-1.9883	0.468969	0.448326	0.913587	0.307746	-0.299998	-0.3752	0.627718	-0.0401204	0	0	-0.259137	0.0576604	-0.420361	0.471397	-0.0874735	0	0	-0.196517	-0.0139883	0.104158	-0.237243	-0.721924	-0.105847	1.6317	0.550257	0	0	0.750081	-0.592742	1.09887	1.11316	0.387845	0	0
1.49	0.694353	1.33833	-2.04238	0.467119	0.441156	0.914982	0.270946	-0.2871	-0.337083	0.48228	-0.0546807	0	0	-0.353344	0.178659	0.00242072	0.252207	-0.0873307	0	0	-0.205505	-0.0344926	0.099986	-0.223653	-0.705546	-0.103957	1.6212	0.564983	0	0	0.756352	-0.595726	1.09702	1.11063	0.393949	0	0
1.5	0.63015	1.34079	-1.98577	0.465199	0.432222	0.915139	0.0948384	-0.209488	-0.0593426	0	-0.234522	0	0	-0.367349	0.158352	-0.0139569	0.251577	-0.0821589	0	0	-0.213102	-0.0212045	0.109859	-0.221099	-0.703949	-0.106629	1.62017	0.568801	0	0	0.757441	-0.592137	1.0929	1.107	0.397496	0	0
1.51	0.645191	1.36377	-2.00802	0.467073	0.42047	0.909252	0.119402	-0.203945	-0.0752438	0	-0.169332	0	0	-0.273649	0.0439185	-0.421037	0.474056	-0.0703394	0	0	-0.179765	-0.0101413	0.122804	-0.241553	-0.714936	-0.116066	1.6316	0.562382	0	0	0.751384	-0.586658	1.09715	1.10656	0.394769	0	0
1.52	0.823215	1.37008	-2.17907	0.466167	0.411709	0.907492	0.145295	-0.233752	-0.0856515	0	-0.12395	0	0	-0.333812	0.180181	0.00879677	0.283072	-0.0253154	0	0	-0.156305	-0.0453817	0.112665	-0.231974	-0.679801	-0.121133	1.61777	0.628201	0	0	0.732322	-0.589561	1.05838	1.10157	0.479677	0	0
1.53	0.841777	1.36392	-2.20174	0.466106	0.401684	0.905771	0.129891	-0.240508	-0.0822059	0	-0.148588	0	0	-0.350473	0.18491	0.00106233	0.275847	-0.0377901	0	0	-0.158018	-0.0521251	0.119629	-0.237146	-0.684474	-0.123449	1.62355	0.617252	0	0	0.741736	-0.589418	1.07412	1.10221	0.451588	0	0
1.54	0.801791	1.37268	-2.1705	0.467659	0.389948	0.90154	0.126392	-0.228855	-0.0895068	0	-0.191614	0	0	-0.280982	0.0615111	-0.424994	0.482863	-0.0555066	0	0	-0.147492	-0.034432	0.135837	-0.258272	-0.708216	-0.129624	1.64014	0.581852	0	0	0.751617	-0.584091	1.1029	1.10392	0.397078	0	0
1.55	0.873535	1.35741	-2.23581	0.466429	0.381386	0.902348	0.119744	-0.249009	-0.100735	0	-0.207463	0	0	-0.374082	0.18954	0.00411723	0.276695	-0.0511597	0	0	-0.156553	-0.0609052	0.128243	-0.248117	-0.696996	-0.125066	1.63346	0.583531	0	0	0.758557	-0.58866	1.10588	1.10298	0.393818	0	0
1.56	0.873366	1.35644	-2.23602	0.46656	0.370995	0.901004	0.115906	-0.246604	-0.107151	0	-0.207454	0	0	-0.383833	0.187364	0.00835815	0.282622	-0.0512316	0	0	-0.155841	-0.0604754	0.129551	-0.249866	-0.697579	-0.126935	1.63573	0.584901	0	0	0.756711	-0.587659	1.10434	1.10198	0.393609	0	0
1.57	0.780849	1.36817	-2.14996	0.468221	0.358806	0.897591	0.110072	-0.218758	-0.114693	0	-0.210404	0	0	-0.311714	0.0446772	-0.438226	0.509758	-0.0547222	0	0	-0.150315	-0.0299924	0.138786	-0.264405	-0.715371	-0.133658	1.64973	0.574585	0	0	0.748849	-0.582928	1.10177	1.10451	0.391075	0	0
1.58	0.804213	1.3462	-2.16516	0.46681	0.350098	0.900068	0.0894863	-0.230433	-0.123367	0	-0.226792	0	0	-0.419301	0.173642	0.0222709	0.298565	-0.0463339	0	0	-0.173972	-0.0516608	0.124888	-0.245824	-0.703247	-0.12433	1.64082	0.581164	0	0	0.754174	-0.592285	1.10036	1.10801	0.394529	0	0
1.59	0.778505	1.34363	-2.13959	0.46676	0.339056	0.899532	0.0795571	-0.221438	-0.124136	0	-0.230374	0	0	-0.432554	0.166925	0.0291423	0.308401	-0.0462216	0	0	-0.177279	-0.0468141	0.12439	-0.245692	-0.703604	-0.123958	1.64203	0.58259	0	0	0.750993	-0.591971	1.0986	1.10638	0.394926	0	0
1.6	0.656915	1.3507	-2.02417	0.468186	0.326248	0.896868	0.0657978	-0.1874	-0.128492	0	-0.236683	0	0	-0.363601	0.0156866	-0.427623	0.535883	-0.0626923	0	0	-0.177297	-0.0115023	0.131605	-0.25836	-0.719987	-0.130168	1.65632	0.581836	0	0	0.740447	-0.58902	1.09197	1.11022	0.399836	0	0
1.61	0.740247	1.34421	-2.09706	0.46684	0.317067	0.898479	0.0747901	-0.203592	-0.139267	0	-0.181851	0	0	-0.441381	0.155201	0.0725342	0.36173	-0.0133058	0	0	-0.177941	-0.0357103	0.115789	-0.241786	-0.69314	-0.12603	1.64214	0.624774	0	0	0.725867	-0.591118	1.06033	1.10219	0.458171	0	0
1.62	0.702453	1.33817	-2.06372	0.466012	0.305699	0.898778	0.0558171	-0.192912	-0.124992	0	-0.216615	0	0	-0.45513	0.148792	0.075016	0.375179	-0.0246985	0	0	-0.185637	-0.0302687	0.120664	-0.243235	-0.696203	-0.124727	1.64442	0.616702	0	0	0.727491	-0.590142	1.06768	1.09947	0.438585	0	0
1.63	0.564657	1.34188	-1.93835	0.466364	0.292142	0.896549	0.0379226	-0.154714	-0.123539	0	-0.320491	0	0	-0.386975	-0.0156786	-0.422031	0.591938	-0.0904649	0	0	-0.188608	0.00539267	0.134009	-0.255816	-0.722697	-0.12142	1.65904	0.585381	0	0	0.727271	-0.595042	1.08414	1.11285	0.401523	0	0
1.64	0.638517	1.32721	-2.00222	0.464362	0.2834	0.899594	0.0281483	-0.173613	-0.127093	0	-0.375852	0	0	-0.467366	0.137844	0.112757	0.44144	-0.0455419	0	0	-0.203092	-0.0237204	0.117096	-0.234129	-0.707428	-0.105052	1.64456	0.589657	0	0	0.729123	-0.607377	1.08069	1.11675	0.403411	0	0
1.65	0.62007	1.32589	-1.98646	0.46333	0.271844	0.900018	0.0222482	-0.165695	-0.123971	0	-0.385212	0	0	-0.465184	0.133676	0.127524	0.475757	-0.0485403	0	0	-0.204121	-0.021074	0.11864	-0.233601	-0.704878	-0.102188	1.64303	0.591671	0	0	0.723324	-0.609537	1.07701	1.11698	0.403745	0	0
1.66	0.479009	1.33563	-1.86175	0.462998	0.257221	0.897816	0.0135673	-0.122922	-0.113496	0	-0.414808	0	0	-0.383455	-0.0548487	-0.415516	0.688527	-0.152896	0	0	-0.195676	0.0190844	0.137035	-0.249915	-0.721191	-0.10503	1.65491	0.583934	0	0	0.708306	-0.607405	1.07131	1.12157	0.402358	0	0
1.67	0.595353	1.32788	-1.95879	0.462143	0.249836	0.901312	0.0187355	-0.153556	-0.126733	0	-0.405111	0	0	-0.436149	0.133207	0.198954	0.598679	-0.0535143	0	0	-0.202598	-0.0155858	0.11103	-0.22669	-0.696896	-0.0932155	1.6356	0.60447	0	0	0.70774	-0.615631	1.06219	1.1193	0.411834	0	0
1.68	0.572746	1.32392	-1.93804	0.461276	0.238696	0.902616	0.00266504	-0.146209	-0.119208	0	-0.438322	0	0	-0.42326	0.132297	0.218533	0.661684	-0.0695631	0	0	-0.207748	-0.0131995	0.1101	-0.22282	-0.695904	-0.0870396	1.63239	0.604278	0	0	0.702348	-0.619886	1.05813	1.12244	0.413684	0	0
1.69	0.651569	1.32849	-2.01297	0.462612	0.227312	0.901579	0.147826	-0.217091	-0.38954	0.384521	-0.217165	0	0	-0.388275	0.160576	0.265902	0.739855	-0.082237	0	0	-0.190728	-0.0294949	0.103932	-0.225769	-0.693239	-0.0836141	1.6305	0.60901	0	0	0.695167	-0.624336	1.05739	1.12579	0.415332	0	0
1.7	0.632178	1.325	-1.99451	0.461898	0.21642	0.902808	0.132784	-0.213168	-0.403289	0.393249	-0.224099	0	0	-0.366325	0.160017	0.272052	0.810903	-0.107415	0	0	-0.195695	-0.0277678	0.103068	-0.224038	-0.693829	-0.0788701	1.62939	0.608403	0	0	0.691844	-0.62792	1.05507	1.129	0.417121	0	0
1.71	0.632679	1.32479	-1.99466	0.46151	0.205509	0.903373	0.132029	-0.219902	-0.435247	0.431744	-0.192679	0	0	-0.335774	0.164015	0.279341	0.886162	-0.132437	0	0	-0.1945	-0.0289735	0.102063	-0.225596	-0.690334	-0.0793538	1.62913	0.618006	0	0	0.688075	-0.630504	1.0524	1.13122	0.423403	0	0
1.72	0.423676	1.32094	-1.81541	0.458237	0.190314	0.902891	0.0817887	-0.147709	-0.416524	0.387415	-0.194233	0	0	-0.266992	-0.102208	-0.325897	1.02694	-0.337273	0	0	-0.206106	0.0194567	0.136848	-0.244528	-0.718121	-0.0786458	1.64753	0.581997	0	0	0.68527	-0.630109	1.06016	1.1397	0.409329	0	0
1.73	0.407124	1.31848	-1.79854	0.457485	0.18018	0.903705	0.0652936	-0.139784	-0.422983	0.385487	-0.193405	0	0	-0.237328	-0.108654	-0.303499	1.09186	-0.346318	0	0	-0.210657	0.0222559	0.137533	-0.246065	-0.718838	-0.0793907	1.64985	0.582624	0	0	0.685781	-0.631595	1.05993	1.14206	0.40912	0	0
1.74	0.578879	1.32035	-1.94015	0.460158	0.175017	0.905465	0.087556	-0.201754	-0.467257	0.442848	-0.17193	0	0	-0.240259	0.159151	0.270051	1.10278	-0.185717	0	0	-0.206336	-0.0182837	0.103689	-0.230081	-0.705471	-0.0731315	1.63792	0.592088	0	0	0.688556	-0.633916	1.05266	1.13884	0.415623	0	0
1.75	0.385222	1.31513	-1.77367	0.45668	0.160774	0.904928	0.0445096	-0.135301	-0.45446	0.412856	-0.156611	0	0	-0.174535	-0.114421	-0.258978	1.21369	-0.353844	0	0	-0.218639	0.0267194	0.138098	-0.250176	-0.724847	-0.0813512	1.65605	0.571872	0	0	0.689114	-0.633205	1.06057	1.14778	0.406622	0	0
1.76	0.369525	1.31198	-1.75665	0.4563	0.15144	0.905949	0.0276264	-0.128868	-0.461175	0.411672	-0.156811	0	0	-0.145567	-0.117002	-0.241973	1.26805	-0.353301	0	0	-0.225193	0.029971	0.139366	-0.252565	-0.726037	-0.0854599	1.65889	0.572059	0	0	0.691947	-0.63267	1.06109	1.14994	0.406602	0	0
1.77	0.530328	1.31619	-1.88676	0.459726	0.146788	0.907783	0.0459615	-0.18837	-0.502078	0.461111	-0.140162	0	0	-0.14596	0.159731	0.265904	1.2838	-0.184267	0	0	-0.220912	-0.00675737	0.106322	-0.238668	-0.714782	-0.0827891	1.64807	0.581051	0	0	0.695889	-0.631452	1.05503	1.14524	0.412938	0	0
1.78	0.348766	1.30203	-1.73197	0.455532	0.133137	0.908843	-0.0158146	-0.114848	-0.467466	0.391505	-0.142074	0	0	-0.0934234	-0.113483	-0.208896	1.36177	-0.289735	0	0	-0.241582	0.0322711	0.14064	-0.254202	-0.727926	-0.0909292	1.66102	0.567588	0	0	0.700838	-0.631616	1.06623	1.15314	0.403308	0	0
1.79	0.350791	1.2967	-1.73369	0.454918	0.123963	0.910504	-0.0371437	-0.111211	-0.470297	0.381822	-0.134658	0	0	-0.0694517	-0.107283	-0.19795	1.39848	-0.260111	0	0	-0.249119	0.028873	0.142275	-0.253738	-0.726258	-0.0933954	1.65988	0.568819	0	0	0.705813	-0.631531	1.07007	1.154	0.402014	0	0
1.8	0.516746	1.30479	-1.87195	0.458397	0.11923	0.91208	-0.0154826	-0.171586	-0.509775	0.428453	-0.113444	0	0	-0.0675999	0.177062	0.265046	1.40466	-0.108732	0	0	-0.239428	-0.0108354	0.111244	-0.239893	-0.710567	-0.0934458	1.64671	0.58897	0	0	0.708747	-0.629424	1.06459	1.14736	0.410718	0	0
1.81	0.358548	1.28777	-1.74622	0.45314	0.105624	0.913946	-0.0910737	-0.0937437	-0.441769	0.316563	-0.146391	0	0	-0.0235778	-0.0939881	-0.18898	1.45072	-0.202867	0	0	-0.261481	0.0197067	0.150002	-0.250947	-0.723782	-0.0943287	1.65575	0.568665	0	0	0.714678	-0.630805	1.0776	1.15365	0.397343	0	0
1.82	0.375602	1.28706	-1.76678	0.452354	0.0963614	0.915175	-0.104973	-0.0948099	-0.442896	0.309134	-0.140099	0	0	0.002979	-0.0842422	-0.189647	1.46599	-0.18769	0	0	-0.262	0.0117459	0.15453	-0.250382	-0.722321	-0.0939749	1.65364	0.568884	0	0	0.716904	-0.630082	1.07946	1.153	0.394898	0	0
1.83	0.54416	1.3021	-1.90838	0.45623	0.0916548	0.915743	-0.0714554	-0.153728	-0.486339	0.35957	-0.123808	0	0	0.0167456	0.199242	0.248068	1.45485	-0.0697658	0	0	-0.242487	-0.0262947	0.123901	-0.237502	-0.711558	-0.090025	1.64121	0.579488	0	0	0.716448	-0.62694	1.0718	1.14568	0.400855	0	0
1.84	0.405665	1.28513	-1.80571	0.450535	0.0780373	0.917684	-0.14649	-0.0871668	-0.41298	0.250962	-0.148061	0	0	0.0523905	-0.0689175	-0.199337	1.47547	-0.158439	0	0	-0.264227	-0.00372978	0.164708	-0.248249	-0.718045	-0.0944562	1.64954	0.570047	0	0	0.721042	-0.629494	1.08239	1.15215	0.393706	0	0
1.85	0.42757	1.28479	-1.83166	0.44988	0.0688763	0.918626	-0.158337	-0.0912355	-0.415512	0.246103	-0.141341	0	0	0.0767966	-0.0591162	-0.205985	1.47114	-0.147066	0	0	-0.263825	-0.0128685	0.169245	-0.248145	-0.716596	-0.0949291	1.64872	0.57102	0	0	0.722561	-0.629525	1.08348	1.15209	0.394332	0	0
